<?xml version="1.0" standalone="no"?>
<!DOCTYPE svg PUBLIC "-//W3C//DTD SVG 20010904//EN"
 "http://www.w3.org/TR/2001/REC-SVG-20010904/DTD/svg10.dtd">
<svg version="1.0" xmlns="http://www.w3.org/2000/svg"
 width="512.000000pt" height="512.000000pt" viewBox="0 0 512.000000 512.000000"
 preserveAspectRatio="xMidYMid meet">

<g transform="translate(0.000000,512.000000) scale(0.100000,-0.100000)"
fill="#000000" stroke="none">
<path d="M2470 4143 c-118 -10 -407 -80 -463 -113 -44 -26 -50 -37 -7 -15 34
17 40 18 40 6 0 -14 -64 -33 -83 -25 -11 4 -17 1 -17 -9 0 -11 -14 -18 -45
-23 -25 -3 -49 -12 -53 -18 -4 -6 -25 -20 -47 -29 -22 -10 -62 -38 -88 -62
-27 -24 -58 -47 -69 -51 -12 -3 -61 -40 -109 -80 -48 -41 -92 -74 -98 -74 -6
0 -11 -11 -11 -24 0 -15 -12 -34 -30 -49 -16 -14 -30 -33 -30 -41 0 -9 -27
-44 -60 -78 -33 -33 -60 -65 -60 -70 0 -5 -11 -26 -25 -47 -15 -22 -23 -45
-19 -54 4 -11 1 -17 -7 -17 -7 0 -21 -7 -31 -17 -17 -15 -18 -15 -18 0 0 19
-15 23 -25 6 -8 -13 25 -39 41 -32 7 2 15 -1 19 -7 10 -17 45 18 45 46 0 13 5
26 10 29 17 11 12 35 -6 28 -15 -5 -15 -3 1 20 10 17 26 27 40 27 15 0 32 11
45 30 23 33 56 42 46 13 -3 -10 7 -2 24 17 16 19 30 40 30 45 0 6 -11 -3 -25
-20 -24 -30 -30 -26 -25 20 4 44 174 210 203 199 7 -2 22 4 32 16 10 11 23 20
30 20 6 0 21 11 33 25 12 14 26 25 32 25 5 0 10 5 10 11 0 23 103 85 121 73 6
-3 19 3 30 15 11 12 24 21 28 21 5 0 11 9 14 20 3 12 22 27 44 35 21 9 45 20
53 25 50 34 108 47 62 14 -32 -22 -27 -37 8 -19 16 8 37 15 47 15 10 0 32 7
48 16 56 30 204 53 371 59 96 3 165 1 169 -4 3 -5 30 -7 59 -4 60 6 167 -16
227 -48 20 -10 43 -19 52 -19 8 0 20 -7 27 -15 7 -8 26 -15 42 -15 46 0 163
-53 232 -105 22 -17 49 -34 59 -38 9 -3 17 -11 17 -16 0 -19 -18 -21 -54 -6
-31 13 -35 13 -30 0 4 -8 12 -15 19 -15 15 0 45 -27 45 -40 0 -5 -8 -10 -17
-12 -12 -2 2 -15 42 -36 54 -29 155 -114 155 -129 0 -4 -13 6 -30 22 -57 54
-40 17 18 -41 61 -61 116 -138 110 -155 -2 -6 -19 11 -37 38 -39 55 -141 163
-154 163 -5 0 17 -28 49 -63 67 -71 195 -244 247 -332 19 -33 48 -93 63 -132
19 -48 31 -68 37 -60 5 8 6 4 3 -9 -4 -11 1 -29 9 -40 8 -10 15 -28 15 -39 1
-19 1 -19 14 -2 17 22 18 20 41 -66 14 -51 15 -71 7 -79 -9 -9 -12 -4 -12 23
0 18 -7 43 -15 53 -14 19 -15 18 -15 -16 0 -20 5 -38 11 -40 6 -2 12 -32 13
-66 1 -35 6 -66 12 -70 6 -4 14 -27 18 -52 4 -24 12 -50 18 -57 5 -7 7 -24 4
-38 -4 -14 -2 -25 3 -25 15 0 21 -46 11 -77 -6 -15 -19 -34 -30 -41 -17 -10
-20 -9 -26 14 -4 14 -2 30 5 37 13 13 15 31 2 23 -5 -3 -12 39 -16 94 -3 55
-11 102 -16 106 -6 3 -6 -11 -2 -38 5 -24 8 -114 7 -200 0 -91 3 -155 9 -151
5 3 6 14 4 25 -6 22 1 48 13 48 14 0 21 -51 9 -66 -7 -8 -9 -17 -6 -20 3 -3 1
-20 -4 -37 l-8 -32 24 30 c14 17 25 25 25 19 0 -7 7 -15 16 -18 11 -4 14 -1
13 12 -5 29 12 96 27 113 13 14 13 17 1 22 -16 6 -23 147 -7 147 13 0 24 85
12 105 -5 11 -6 32 -1 54 6 26 5 39 -5 46 -7 6 -18 32 -23 58 -9 39 -8 47 4
47 12 0 14 8 8 38 -9 49 -22 62 -40 39 -8 -12 -15 -14 -20 -8 -3 6 -1 11 4 11
6 0 11 9 11 21 0 11 -4 18 -9 14 -6 -3 -13 11 -17 31 -4 23 -3 39 5 43 7 4 9
21 5 42 -3 19 -6 52 -5 74 l0 40 -19 -23 c-18 -22 -18 -26 -5 -45 8 -12 15
-31 15 -42 -1 -12 -10 -1 -25 30 -29 59 -30 65 -9 65 11 0 15 6 11 20 -3 12
-1 18 5 14 7 -5 9 3 5 22 -5 30 -1 26 29 -23 7 -10 15 -15 19 -11 16 15 -117
274 -134 263 -11 -6 -51 54 -79 117 -11 25 -29 51 -41 57 -11 6 -18 17 -15 24
5 15 -202 221 -286 284 -59 44 -259 155 -325 179 -94 35 -187 55 -201 44 -14
-12 -54 -5 -54 10 0 12 -54 19 -67 8 -15 -12 -47 -3 -39 11 11 17 -154 25
-294 14z m1300 -705 c0 -6 -7 -5 -15 2 -8 7 -15 17 -15 22 0 6 7 5 15 -2 8 -7
15 -17 15 -22z m-2460 -24 c-18 -21 -24 -10 -9 18 8 14 14 18 17 10 2 -7 -2
-19 -8 -28z m2577 -166 c8 -9 13 -25 11 -35 -2 -12 -12 -1 -31 36 -28 58 -38
98 -10 46 8 -16 22 -38 30 -47z m41 -87 c-15 -5 -21 7 -13 26 7 17 8 17 15 -2
4 -11 3 -22 -2 -24z m60 -516 l0 -40 -9 40 c-4 22 -8 49 -8 60 l0 20 9 -20 c5
-11 8 -38 8 -60z m52 3 c0 -19 -2 -20 -10 -8 -13 19 -13 30 0 30 6 0 10 -10
10 -22z"/>
<path d="M1915 3900 c-3 -5 -1 -10 4 -10 6 0 11 5 11 10 0 6 -2 10 -4 10 -3 0
-8 -4 -11 -10z"/>
<path d="M1416 3534 c-15 -14 -25 -28 -22 -32 4 -3 21 8 39 26 37 38 25 43
-17 6z"/>
<path d="M1613 3413 c-14 -21 -18 -46 -17 -103 2 -104 40 -214 105 -301 53
-72 200 -217 262 -259 53 -36 45 -45 -14 -14 -28 14 -53 23 -56 21 -6 -7 151
-128 356 -274 145 -104 161 -118 140 -124 -13 -4 -36 -7 -51 -8 -16 -1 -28 -4
-28 -8 0 -5 64 -30 143 -57 239 -82 307 -108 307 -116 0 -4 -15 -13 -32 -19
l-32 -12 29 -17 c56 -34 115 -52 202 -62 71 -8 104 -17 168 -50 134 -67 162
-93 243 -228 l73 -121 55 -16 c29 -8 71 -25 91 -37 l38 -22 -36 44 c-20 25
-48 51 -63 58 -15 8 -32 26 -37 40 -6 15 -36 54 -67 87 -31 33 -102 112 -157
175 -154 175 -203 230 -269 296 -211 209 -561 486 -988 781 -197 136 -251 181
-123 103 518 -317 1092 -787 1303 -1067 51 -67 171 -205 287 -330 11 -12 31
-23 45 -25 16 -2 26 -10 28 -23 2 -12 20 -41 42 -65 l38 -45 -19 55 c-10 30
-18 69 -19 87 0 27 -19 53 -111 155 -62 68 -169 182 -240 253 -103 106 -134
144 -164 205 -41 82 -115 210 -122 210 -2 0 -1 -16 3 -35 3 -19 3 -35 -1 -35
-3 0 -52 48 -108 106 -175 183 -378 348 -667 541 -154 103 -367 236 -422 264
-54 28 -94 25 -115 -8z"/>
<path d="M1210 3385 c-11 -13 -10 -14 4 -9 9 3 16 10 16 15 0 13 -6 11 -20 -6z"/>
<path d="M1278 3303 c7 -3 16 -2 19 1 4 3 -2 6 -13 5 -11 0 -14 -3 -6 -6z"/>
<path d="M1237 3283 c-4 -3 -7 -11 -7 -17 0 -6 5 -5 12 2 6 6 9 14 7 17 -3 3
-9 2 -12 -2z"/>
<path d="M1252 3258 c-7 -7 -12 -16 -12 -22 0 -5 -11 -32 -24 -60 -36 -75 -42
-106 -22 -106 11 0 16 9 16 28 0 15 9 41 20 57 11 17 17 37 14 47 -3 10 4 22
18 32 15 11 19 19 12 26 -7 7 -14 6 -22 -2z"/>
<path d="M1082 3180 c-11 -30 -27 -68 -36 -85 -8 -16 -17 -50 -21 -75 -3 -25
-2 -38 1 -30 4 8 13 22 20 31 16 18 66 187 61 203 -2 6 -13 -14 -25 -44z"/>
<path d="M1116 3168 c-8 -33 -7 -40 5 -32 7 4 10 2 8 -5 -3 -7 -8 -12 -13 -11
-17 3 -23 -25 -17 -75 l6 -50 14 33 c8 18 23 37 33 43 15 8 19 18 15 37 -3 15
-1 35 4 44 6 12 6 18 -1 18 -5 0 -10 -6 -11 -12 0 -7 -5 -3 -11 10 -6 12 -14
22 -18 22 -4 0 -10 -10 -14 -22z"/>
<path d="M1079 2903 c-20 -54 -30 -112 -29 -172 0 -13 -5 -30 -11 -37 -9 -11
-8 -18 1 -29 9 -10 9 -19 2 -27 -5 -7 -13 -33 -18 -58 -8 -43 -9 -42 -15 40
-3 49 -2 90 4 97 5 7 6 21 2 30 -5 10 -8 27 -7 38 1 11 4 53 6 93 3 43 1 72
-4 72 -6 0 -10 -11 -10 -25 0 -13 -6 -48 -14 -78 -20 -76 -29 -362 -15 -462 6
-44 12 -96 13 -115 3 -46 25 -137 41 -176 8 -18 17 -49 21 -70 4 -22 22 -69
40 -105 19 -37 34 -69 34 -73 0 -15 155 -284 188 -326 60 -75 145 -159 155
-153 6 3 7 2 4 -4 -7 -11 28 -46 56 -56 9 -4 36 -20 60 -37 51 -38 156 -100
168 -100 5 0 64 -27 132 -59 128 -61 240 -101 286 -101 14 0 39 -7 55 -15 15
-8 31 -13 35 -12 3 2 51 -1 106 -7 109 -12 355 2 409 23 16 6 37 9 47 6 23 -8
182 20 250 44 47 16 89 36 208 100 35 19 205 161 211 177 3 7 17 26 33 43 15
17 27 34 27 38 0 3 7 14 16 24 12 14 13 22 4 38 -6 12 -15 21 -20 21 -5 0 -9
10 -7 22 2 25 -25 36 -45 18 -66 -56 -191 -147 -241 -174 -120 -67 -331 -136
-415 -136 -21 0 -53 -7 -70 -15 -40 -20 -235 -32 -497 -30 -197 1 -246 8 -340
46 -11 4 -51 17 -89 29 -50 16 -65 25 -55 32 10 6 7 7 -9 3 -15 -4 -24 -1 -28
10 -8 19 -81 58 -94 50 -16 -10 -210 127 -210 149 -1 6 -18 24 -38 40 -40 32
-116 139 -118 166 -3 51 -19 98 -41 124 -15 18 -21 32 -14 34 19 6 12 22 -10
22 -17 0 -19 -4 -13 -22 6 -21 5 -21 -10 -9 -23 19 -46 65 -46 91 0 11 -7 23
-15 26 -9 4 -15 19 -15 35 0 18 -6 32 -16 36 -9 3 -14 13 -11 24 3 11 -1 23
-10 27 -15 9 -33 70 -32 112 1 24 1 23 11 -5 21 -62 91 -199 95 -188 6 16 -35
149 -50 166 -7 6 -12 17 -12 22 -2 38 -20 111 -28 117 -5 3 -18 38 -28 77 -15
61 -16 75 -5 102 13 30 13 31 19 8 4 -13 7 -36 7 -51 0 -16 5 -28 10 -28 7 0
7 15 3 43 -14 75 -6 257 15 355 11 51 16 95 12 97 -5 3 -6 14 -3 25 11 41 -6
18 -28 -37z m-62 -505 c-3 -8 -6 -5 -6 6 -1 11 2 17 5 13 3 -3 4 -12 1 -19z
m29 -88 c12 -53 12 -63 0 -76 -23 -23 -29 -17 -23 26 3 27 1 43 -9 51 -16 13
-19 54 -4 44 6 -3 10 2 10 11 0 31 11 7 26 -56z m434 -865 c7 -8 8 -15 2 -15
-5 0 -15 7 -22 15 -7 8 -8 15 -2 15 5 0 15 -7 22 -15z"/>
<path d="M1150 2933 c0 -22 2 -25 10 -13 13 20 13 40 0 40 -5 0 -10 -12 -10
-27z"/>
<path d="M4020 2901 c0 -6 4 -13 10 -16 6 -3 7 1 4 9 -7 18 -14 21 -14 7z"/>
<path d="M3906 2710 c3 -30 11 -59 16 -65 7 -7 8 5 3 35 -12 71 -26 94 -19 30z"/>
<path d="M3217 2183 c336 -354 362 -385 363 -423 1 -42 30 -122 47 -127 7 -3
5 14 -8 47 -10 27 -19 65 -19 84 0 29 -20 54 -161 207 -199 215 -341 359 -352
359 -5 0 54 -66 130 -147z"/>
<path d="M4141 2254 c0 -11 3 -14 6 -6 3 7 2 16 -1 19 -3 4 -6 -2 -5 -13z"/>
<path d="M1135 2191 c6 -38 12 -48 22 -38 3 4 -1 22 -11 40 l-17 32 6 -34z"/>
<path d="M3922 2165 c-7 -14 -12 -39 -12 -55 0 -16 -13 -62 -30 -103 -16 -42
-30 -82 -30 -90 0 -8 -6 -20 -14 -26 -8 -6 -20 -26 -27 -43 -7 -17 -43 -72
-81 -122 -37 -50 -68 -95 -68 -100 0 -6 6 -2 13 9 8 10 19 15 25 11 6 -3 13
-2 16 3 3 5 15 7 27 4 16 -5 35 9 84 61 35 36 68 66 72 66 4 1 26 29 48 62 46
71 47 73 86 148 38 74 50 113 47 152 l-4 43 -13 -32 c-13 -32 -43 -53 -49 -34
-8 23 -22 9 -32 -29 -6 -22 -15 -40 -21 -40 -6 0 -8 9 -4 20 4 11 2 20 -4 20
-6 0 -12 -8 -12 -17 -1 -10 -2 -22 -4 -28 -1 -5 -3 -16 -3 -22 -1 -7 -6 -13
-11 -13 -10 0 -7 38 9 119 13 59 9 74 -8 36z m109 -119 c-6 -14 -14 -26 -19
-26 -19 0 -19 12 2 35 25 29 30 26 17 -9z m-131 -46 c0 -5 -5 -10 -11 -10 -5
0 -7 5 -4 10 3 6 8 10 11 10 2 0 4 -4 4 -10z"/>
<path d="M3950 2121 c0 -12 5 -21 10 -21 6 0 10 6 10 14 0 8 -4 18 -10 21 -5
3 -10 -3 -10 -14z"/>
<path d="M1391 1613 c23 -31 66 -70 86 -77 10 -4 -4 16 -32 43 -47 49 -82 70
-54 34z"/>
<path d="M1540 1525 c7 -9 15 -13 17 -11 7 7 -7 26 -19 26 -6 0 -6 -6 2 -15z"/>
<path d="M3687 1513 c-4 -3 -7 -11 -7 -17 0 -6 5 -5 12 2 6 6 9 14 7 17 -3 3
-9 2 -12 -2z"/>
<path d="M1540 1485 c13 -14 26 -25 28 -25 3 0 -5 11 -18 25 -13 14 -26 25
-28 25 -3 0 5 -11 18 -25z"/>
<path d="M3695 1479 c-4 -6 -4 -13 -1 -16 3 -4 -4 -17 -16 -30 -12 -12 -19
-26 -15 -29 5 -5 25 6 75 42 5 3 -22 44 -30 44 -4 0 -10 -5 -13 -11z"/>
</g>
</svg>
